# xmcd
#
# Track frame offsets: 
#        150
#        3442
#        20580
#        35597
#        50300
#        63574
#        80097
#        94362
#        112895
#        129603
#        148505
#        161979
#
# Disc length: 2337 seconds
#
# Revision: 0
# Processed by: cddbd v1.5.2PL0 Copyright (c) Steve Scherf et al.
# Submitted via: ExactAudioCopy v0.99pb3
#
DISCID=a5091f0c
DTITLE=Le Monde - Vzducholoï
DYEAR=2007
DGENRE=R&B
TTITLE0=Intro
TTITLE1=Vzducholoï
TTITLE2=Another Chance
TTITLE3=Dej mi
TTITLE4=Nebudem ztrácet èas
TTITLE5=I Love Your Smile
TTITLE6=Forever Gone
TTITLE7=Shake That Ass
TTITLE8=Still Hood feat. Frenchy
TTITLE9=Pain
TTITLE10=Deeper
TTITLE11=Could It Be(Nebudem ztrácet èas)
EXTD=
EXTT0=
EXTT1=
EXTT2=
EXTT3=
EXTT4=
EXTT5=
EXTT6=
EXTT7=
EXTT8=
EXTT9=
EXTT10=
EXTT11=
PLAYORDER=
